<!-- Generated by IcoMoon.io -->
<svg version="1.1" xmlns="http://www.w3.org/2000/svg" width="100px" height="100px" viewBox="0 0 416 448">
<title></title>
<g id="icomoon-ignore">
</g>
<path fill="#fff" d="M96 384c0-17.75-14.25-32-32-32s-32 14.25-32 32 14.25 32 32 32 32-14.25 32-32zM192 384c0-17.75-14.25-32-32-32s-32 14.25-32 32 14.25 32 32 32 32-14.25 32-32zM96 288c0-17.75-14.25-32-32-32s-32 14.25-32 32 14.25 32 32 32 32-14.25 32-32zM288 384c0-17.75-14.25-32-32-32s-32 14.25-32 32 14.25 32 32 32 32-14.25 32-32zM192 288c0-17.75-14.25-32-32-32s-32 14.25-32 32 14.25 32 32 32 32-14.25 32-32zM96 192c0-17.75-14.25-32-32-32s-32 14.25-32 32 14.25 32 32 32 32-14.25 32-32zM288 288c0-17.75-14.25-32-32-32s-32 14.25-32 32 14.25 32 32 32 32-14.25 32-32zM192 192c0-17.75-14.25-32-32-32s-32 14.25-32 32 14.25 32 32 32 32-14.25 32-32zM384 384v-96c0-17.5-14.5-32-32-32v0c-17.5 0-32 14.5-32 32v96c0 17.5 14.5 32 32 32v0c17.5 0 32-14.5 32-32zM288 192c0-17.75-14.25-32-32-32s-32 14.25-32 32 14.25 32 32 32 32-14.25 32-32zM384 112v-64c0-8.75-7.25-16-16-16h-320c-8.75 0-16 7.25-16 16v64c0 8.75 7.25 16 16 16h320c8.75 0 16-7.25 16-16zM384 192c0-17.75-14.25-32-32-32s-32 14.25-32 32 14.25 32 32 32 32-14.25 32-32zM416 32v384c0 17.5-14.5 32-32 32h-352c-17.5 0-32-14.5-32-32v-384c0-17.5 14.5-32 32-32h352c17.5 0 32 14.5 32 32z"></path>
</svg>
