<?xml version="1.0" encoding="utf-8"?>
<!-- Generator: Adobe Illustrator 20.0.0, SVG Export Plug-In . SVG Version: 6.00 Build 0)  -->
<svg version="1.1" id="Layer_1" xmlns="http://www.w3.org/2000/svg" xmlns:xlink="http://www.w3.org/1999/xlink" x="0px" y="0px"
	 viewBox="0 0 1039.4 1039.4" style="enable-background:new 0 0 1039.4 1039.4;" xml:space="preserve">
<style type="text/css">
	.st0{fill-rule:evenodd;clip-rule:evenodd;fill:#FFFFFF;}
</style>
<g>
	<path class="st0" d="M429.6,517.8c5.8-2.4,11.4-4.2,16.4-7c18.7-10.2,27.4-27.4,32-47.2c4.5-19.2,3.6-38.7,2.9-58.2
		c-2.2-54.1-4.7-108.1-7.1-162.2c-1.2-26.9-2.5-53.9-4.8-81.1c-43.5,95.3-87,190.6-131.1,287c-57.3-122.3-114-243.6-171.1-365.6
		c11.7,0,22.6-0.1,33.5,0.2c1.3,0,2.9,2.3,3.7,3.9c16,33.8,31.9,67.7,47.9,101.6c27.8,59.2,55.6,118.3,83.4,177.5
		c0.6,1.3,1.4,2.6,2.4,4.4c4.9-10.6,9.6-20.7,14.2-30.8c38.5-83.9,77-167.8,115.3-251.8c1.8-4,3.9-5.3,8.2-5.1
		c8.5,0.4,17,0.1,26.2,0.1c6.5,145.1,13,290.1,19.4,435c-8.1,1.4-14.6,5.2-20.6,10c-11,9-12.4,21-10.1,34
		c3.6,20.3,11.4,39.2,19.7,58c27.3,62.1,54.7,124.2,82.1,186.3c0.6,1.3,1.4,2.6,2.3,4.5c6.9-15.7,13.7-30.8,20.4-46
		c13.6-30.9,27.3-61.8,40.8-92.7c0.8-1.9,1.2-4.7,0.5-6.5c-12.2-28.6-24.3-57.3-37-85.6c-6-13.4-13.9-25.8-24.4-36.3
		c-11.1-11-24.8-17.8-39.4-22.9c-2.5-0.9-4.2-1.5-4.3-4.9c-1.5-38.4-3.2-76.8-4.9-115.3c-2.6-58.4-5.3-116.7-8-175.1
		c-2.1-45.6-4.1-91.1-6.1-136.7c-0.1-1.6,0-3.3,0-4.8c32.8-1.6,65.5-3.3,98.2-4.9c1.3,6.4,1.3,6.4-5,8c-28.5,7.2-50.2,31.4-53,61.9
		c-1.7,19-1.1,38.3-0.5,57.4c1.1,33.9,2.9,67.9,4.5,101.8c1.9,38.7,3.6,77.5,5.9,116.2c1.2,18.8,4.6,37.3,12.2,54.8
		c5.8,13.2,14.6,23.6,27.5,30.7c3,1.6,5.8,4.7,7.2,7.8c12,27.2,23.9,54.5,35.5,81.9c45.3,107.8,90.5,215.6,135.9,323.4
		c1.3,3.2,1.5,5.8,0.2,9c-3.3,7.8-6.4,15.7-9.4,23.6c-1,2.7-2.1,4.5-5.5,4.3c-3.2-0.2-5.3-0.4-6.8-4c-21.4-51.1-43-102.1-64.6-153.1
		c-12.6-29.7-25.1-59.5-37.6-89.2c-0.6-1.5-1.4-2.9-2.6-5.4c-26.7,61.2-52.9,121.4-79.6,182.6C539.1,766.1,484.3,641.9,429.6,517.8z
		"/>
	<path class="st0" d="M32.3,524.6c-1.9-5.9-0.4-8.2,4.7-10c19.7-6.8,31.3-21.8,39-40.3c8.6-20.7,11.4-42.7,12.4-64.9
		c1.8-39.2,3.4-78.5,5-117.7c2-47.1,4-94.1,6-141.2c0.3-6.3,0.8-12.6,0.6-19c-0.1-2.5-1-5.6-2.6-7.5c-16-18.8-36.7-29.9-60.3-36
		c-5.2-1.3-6.9-3.6-5-9c9.6,0.8,19.4,1.8,29.1,2.2c22.5,0.9,44.9,1.6,67.4,2.1c3.6,0.1,5.2,1.4,6.6,4.5
		c61.3,130.7,122.6,261.4,184,392.1c1.6,3.5,1.8,6.2,0,9.7c-5.8,11.2-11.1,22.7-16.9,34.7C245.7,403.5,189.3,283.2,132.8,163
		c-0.4,0-0.8,0-1.1,0c-0.2,2.1-0.5,4.3-0.6,6.4c-1.2,28.6-2.4,57.2-3.6,85.8c-2,46.1-4.2,92.1-5.9,138.2c-0.7,19.9-1.4,40-0.4,59.9
		c0.9,18.6,6.8,36,21.4,49.1c9.3,8.3,20.5,12.2,32.9,14.1c0,2.3,0,4.5,0,7.8C127.8,518.3,80,517.5,32.3,524.6z"/>
	<path class="st0" d="M817.9,889.8c-52.2-124.7-104-248.3-156-372.6c29.4-1.6,58.4-3.1,87.6-4.7c1.2,4.4,0.8,7.3-4.4,9.5
		c-19.7,8.3-26.3,22.7-21.9,46.1c4,21.6,12.1,41.8,20.6,61.9c24,57.5,48,115.1,72,172.7c0.6,1.3,1.2,2.6,2.3,4.8
		c2.7-6.4,5-12,7.3-17.6c21.7-53.1,43.5-106.2,64.9-159.4c7-17.3,12.4-35.2,14-53.9c0.7-7.7,0.5-15.7-1-23.3
		c-3-16.2-13.4-26.4-28.8-31.5c-4.8-1.6-7.2-3.5-5.1-9.6c45.6,5.8,91.7,6.8,137.9,0c1.3,4.6,1.1,7.8-3.6,10.5
		c-26.5,15.2-45.6,37.3-58,64.8c-17.8,39.4-35.1,79-51.8,118.9c-25,59.6-49.4,119.6-74,179.4C819.4,886.7,818.9,887.7,817.9,889.8z"
		/>
	<path class="st0" d="M319.3,519.9c0-2.6,0-4.9,0-7.4c7.7,0.7,15.1,1.5,22.5,1.9c16.3,0.9,32.6,1.8,48.9,2.2c4.3,0.1,5.6,2.5,7,5.7
		C452.6,646.6,507.7,771,562.8,895.3c4.3,9.7,8.8,19.4,12.8,29.2c0.9,2.1,0.9,5.2,0.1,7.4c-3.4,8.3-7.4,16.4-10.9,24.6
		c-1.1,2.6-2.5,3.8-5.5,3.8c-3.3,0.1-4.2-1.7-5.3-4.1c-30.9-70-61.9-139.9-92.8-209.8c-22-49.6-43.7-99.2-66.2-148.5
		c-10.2-22.4-23.3-43-41.9-59.7C343.3,529.5,332.4,523.1,319.3,519.9z"/>
</g>
</svg>
