<svg version="1.1" xmlns="http://www.w3.org/2000/svg" width="100px" height="100px" viewBox="0 0 1024 1024">
<path fill="#fff" d="M247.343 352.716c48.95-44.891 110.085-76.707 177.873-89.914-25.155-20.538-41.216-51.794-41.216-86.801 0-61.856 50.144-112 112-112s112 50.144 112 112c0 35.007-16.061 66.263-41.216 86.801v0c67.788 13.208 128.924 45.023 177.873 89.914v0l39.343-39.343-22.627-22.627 22.627-22.627 67.882 67.882-22.627 22.627-22.627-22.627-39.343 39.343c60.060 65.49 96.716 152.793 96.716 248.657 0 203.241-164.759 368-368 368s-368-164.759-368-368c0-95.864 36.656-183.167 96.716-248.657l-39.343-39.343-22.627 22.627-22.627-22.627 67.882-67.882 22.627 22.627-22.627 22.627 39.343 39.343zM516.695 580.678l99.796-99.796c6.121-6.121 16.456-6.326 22.705-0.077 6.066 6.066 6.214 16.414-0.077 22.705l-99.796 99.796c2.999 6.266 4.678 13.284 4.678 20.695 0 26.51-21.49 48-48 48-7.41 0-14.428-1.679-20.695-4.678l-35.796 35.796c-6.121 6.121-16.456 6.326-22.705 0.077-6.066-6.066-6.214-16.414 0.077-22.705l35.796-35.796c-2.999-6.266-4.678-13.284-4.678-20.695 0-26.51 21.49-48 48-48 7.41 0 14.428 1.679 20.695 4.678v0 0zM512 254.4c36.516-7.412 64-39.696 64-78.4 0-44.183-35.817-80-80-80s-80 35.817-80 80c0 38.703 27.484 70.987 64 78.4v-62.4h-32v-32h96v32h-32v62.4zM256.52 639.928h79.857c8.668 0 15.695-7.422 15.695-16 0-8.837-6.882-16-15.695-16h-79.847c7.919-119.766 103.694-215.519 223.47-223.403v79.78c0 8.668 7.422 15.695 16 15.695 8.837 0 16-6.882 16-15.695v-79.78c119.776 7.884 215.551 103.636 223.47 223.403h-79.847c-8.668 0-15.695 7.422-15.695 16 0 8.837 6.882 16 15.695 16h79.857c-7.852 119.834-103.656 215.661-223.48 223.547v-79.924c0-8.668-7.422-15.695-16-15.695-8.837 0-16 6.882-16 15.695v79.924c-119.824-7.887-215.628-103.714-223.48-223.547zM496 960c185.568 0 336-150.432 336-336s-150.432-336-336-336c-185.568 0-336 150.432-336 336s150.432 336 336 336v0zM496 896c150.221 0 272-121.779 272-272s-121.779-272-272-272c-150.221 0-272 121.779-272 272s121.779 272 272 272v0zM496 640c8.837 0 16-7.163 16-16s-7.163-16-16-16c-8.837 0-16 7.163-16 16s7.163 16 16 16v0z"></path>
</svg>
