<svg version="1.1" xmlns="http://www.w3.org/2000/svg" width="100px" height="100px" viewBox="0 0 768 1024">
<path fill="#fff" d="M48 1024h672c26.464 0 48-21.536 48-48v-672c0-0.544-0.256-0.992-0.288-1.504-0.064-0.736-0.256-1.376-0.416-2.080-0.544-2.272-1.472-4.32-2.88-6.112-0.224-0.288-0.192-0.64-0.416-0.928l-256-288c-0.096-0.096-0.224-0.096-0.32-0.192-1.92-2.048-4.352-3.456-7.136-4.288-0.608-0.192-1.152-0.256-1.792-0.352-0.928-0.16-1.792-0.544-2.752-0.544h-448c-26.464 0-48 21.536-48 48v928c0 26.464 21.536 48 48 48zM512 58.080l204.384 229.92h-188.384c-7.040 0-16-13.44-16-24v-205.92zM32 48c0-8.832 7.2-16 16-16h432v232c0 25.888 20.96 56 48 56h208v656c0 8.832-7.2 16-16 16h-672c-8.96 0-16-7.040-16-16v-928zM176 448h416c8.832 0 16-7.168 16-16s-7.168-16-16-16h-416c-8.832 0-16 7.168-16 16s7.168 16 16 16zM176 576h416c8.832 0 16-7.168 16-16s-7.168-16-16-16h-416c-8.832 0-16 7.168-16 16s7.168 16 16 16zM176 320h192c8.832 0 16-7.168 16-16s-7.168-16-16-16h-192c-8.832 0-16 7.168-16 16s7.168 16 16 16zM176 704h416c8.832 0 16-7.168 16-16s-7.168-16-16-16h-416c-8.832 0-16 7.168-16 16s7.168 16 16 16zM176 832h416c8.832 0 16-7.168 16-16s-7.168-16-16-16h-416c-8.832 0-16 7.168-16 16s7.168 16 16 16z"></path>
</svg>
