<svg version="1.1" xmlns="http://www.w3.org/2000/svg" width="100px" height="100px" viewBox="0 0 1024 1024">
<path fill="#fff" d="M512 112c-229.792 0-416 186.24-416 416s186.208 416 416 416c229.728 0 416-186.24 416-416s-186.24-416-416-416zM508.64 864.864c-185.568 0-336-150.432-336-336s150.432-336 336-336c185.536 0 336 150.432 336 336s-150.464 336-336 336zM605.76 548.192h-95.36v-161.024c0-17.472-14.176-31.68-31.648-31.68-17.504 0-31.68 14.176-31.68 31.68v192.672c0 17.504 14.176 31.648 31.68 31.648h127.008c17.504 0 31.68-14.144 31.68-31.648 0-17.472-14.176-31.648-31.68-31.648z"></path>
</svg>
