<!-- Generated by IcoMoon.io -->
<svg version="1.1" xmlns="http://www.w3.org/2000/svg" width="1024" height="1024" viewBox="0 0 1024 1024">
<title></title>
<g id="icomoon-ignore">
</g>
<path fill="#000" d="M960 448c0-70.692-57.451-128-128-128-70.692 0-128 57.261-128 128h32c0-53.019 43.089-96 96-96 53.019 0 96 43.089 96 96 0 53.019-42.98 96-96.254 96h-735.746v32h736.049c70.665 0 127.951-57.451 127.951-128v0zM672 416c0-53.019-43.089-96-96-96-53.019 0-96 42.946-96 95.725v0.275h32c0-35.346 28.407-64 64-64 35.346 0 64 28.407 64 64 0 35.346-28.706 64-64.187 64h-383.813v32h384.018c53.009 0 95.982-43.089 95.982-96v0zM800 672c0 35.346-28.407 64-64 64v0c-35.346 0-64-28.631-64-63.816v-0.184h32c0 17.673 14.204 32 32 32v0c17.673 0 32-14.204 32-32v0c0-17.673-14.365-32-32.239-32h-447.761v-32h448.19c35.241 0 63.81 28.407 63.81 64v0 0z"></path>
</svg>
