<svg id="Layer_1" data-name="Layer 1" xmlns="http://www.w3.org/2000/svg" viewBox="0 0 765.49 765.49"><defs><style>.cls-1{fill:#fffb59;stroke:#fffb59;stroke-miterlimit:10;stroke-width:5px;}.cls-2{fill:#ff404c;}</style></defs><title>coin-heads</title><circle class="cls-1" cx="382.75" cy="382.75" r="380.25"/><path class="cls-2" d="M340.39,210.36c-23.61,17.56-29.95,45.37-28.79,60.17,1.49,18.09,5.16,41.65,5.16,41.65s-7.27,3.95-7.27,19.84c2.53,39.88,15.87,22.67,18.61,40.16,6.59,42.14,21.67,34.63,21.67,57.63,0,38.31-15.8,56.22-65.11,77.45-49.48,21.32-100.49,48.15-100.49,94.61V625.1H602.3V601.87c0-46.46-51-73.29-100.54-94.59-49.32-21.23-65.06-39.12-65.06-77.45,0-23,15-15.49,21.65-57.63,2.76-17.49,16.07-.28,18.65-40.16,0-15.89-7.3-19.84-7.3-19.84s3.67-23.55,5.14-41.65c1.51-19-9.25-59.49-53.43-71.92-7.74-7.9-13-20.46,10.83-33.08-52-2.44-64.14,24.79-91.85,44.81Z" transform="translate(-10.49 -12.5)"/></svg>