<svg id="Layer_1" data-name="Layer 1" xmlns="http://www.w3.org/2000/svg" viewBox="0 0 765.49 765.49"><defs><style>.cls-1{fill:#fffb59;stroke:#fffb59;stroke-miterlimit:10;stroke-width:5px;}.cls-2{fill:#ff404c;}</style></defs><title>coin-tails</title><circle class="cls-1" cx="382.75" cy="382.75" r="380.25"/><path class="cls-2" d="M263.61,622.78c7.2-23,18.06-55.45,32.63-102.32,63.49-10.06,89.76,8,130.08-64-32.72,10-72.17-18.58-70.06-31s91.78,8.94,150.49-74.42c-74,16.32-97.67-19.61-88.12-25,22-12.52,87.39-5.21,122.25-39.14,18-17.48,26.38-60,19.06-75.11-8.77-18.32-62.29-45.64-91.8-43.06s-75.78,112.35-89.53,111.5-16.49-49.2,7.49-94.12C360.83,197.28,314.53,232,300,261.75c-27,55.29,2.53,182.16-6.95,186.66s-41.42-58.19-50.94-86.64c-13,43.6-13.32,87.27,24.7,145.28-14.33,38.07-22.17,81.88-23.36,104.16-.57,17.8,17,21.63,20.14,11.57Z" transform="translate(-15.64 -12.5)"/></svg>